<svg xmlns="http://www.w3.org/2000/svg" width="440.297" height="788.187" viewBox="0 0 440.297 788.187">
  <g id="Group_128" data-name="Group 128" transform="translate(-469.948 -71.557)">
    <g id="Group_127" data-name="Group 127" transform="translate(469.948 71.557)">
      <path id="Path_91" data-name="Path 91" d="M746.621,296.308a157.375,157.375,0,0,0-54.034,40.826c-46.874,54.491-41.192,134.039-44.4,201.878-.644,13.641-1.658,30.189-4.125,47.066h80.928a26.321,26.321,0,0,0,26.245-26.245V294.359C749.689,294.972,748.15,295.616,746.621,296.308Z" transform="translate(-310.939 202.108)" fill="#f5bd32"/>
      <path id="Path_92" data-name="Path 92" d="M529.6,120.979c33.5-9.8,63.281-27.707,93.794-44.209q4.846-2.621,9.719-5.213H517.193A26.322,26.322,0,0,0,490.948,97.8v31.442A278.486,278.486,0,0,0,529.6,120.979Z" transform="translate(-490.948 -71.557)" fill="#f5bd32"/>
      <path id="Path_93" data-name="Path 93" d="M686.05,86.16c11.84,11.218,23.071,22.971,34.871,34.031V97.8a26.322,26.322,0,0,0-26.245-26.245H669.848C675.418,76.315,680.824,81.206,686.05,86.16Z" transform="translate(-280.625 -71.557)" fill="#bfda79"/>
      <path id="Path_94" data-name="Path 94" d="M665.988,490.828c49.052-3.878,104.55-15.261,143.365-50.458,32.27-29.262,51.753-71.969,55.623-116.74,4.137-47.845-5.04-100.578-25.434-141.652-18.107-36.467-46.215-62.428-81.242-74.643-46.6-16.249-97.047-10.6-144.127,6-42.773,15.083-82.549,38.171-123.225,58.9v302.87q4.1.865,8.191,1.708C554.133,488.076,610.028,495.253,665.988,490.828Z" transform="translate(-470.309 17.859)" fill="#f5bd32"/>
      <g id="Group_121" data-name="Group 121" transform="translate(32.79 331.489)">
        <path id="Path_95" data-name="Path 95" d="M612.069,215.043q-5.873,1.687-11.751,3.128c-34.809-12.489-73.221-16.237-104.636,6.219a1.788,1.788,0,0,0,.429,3.081c19.148,5.379,32.673,18.773,53.733,18.135,20.2-.642,38.61-10.749,52.765-24.641a.623.623,0,0,0,.138-.7c3.445-.931,6.851-1.917,10.212-3.01C614.445,216.785,613.514,214.635,612.069,215.043Z" transform="translate(-494.988 -208.16)" fill="#91d5da"/>
        <path id="Path_96" data-name="Path 96" d="M606.357,213.917a226.227,226.227,0,0,1-32.522,6.135.682.682,0,0,0-.048-.071,94.85,94.85,0,0,0-9.677-8.927.552.552,0,0,0-.7.851c2.011,1.7,4.029,3.393,5.963,5.185.366.338,2.785,2.246,2.848,2.734a1.282,1.282,0,0,1-.017.425c-7.569.856-15.175,1.423-22.8,1.778.047-.043.093-.088.142-.129a.472.472,0,0,0,.028-.739,43.223,43.223,0,0,1-9.25-9.21.426.426,0,0,0-.7.489,32.609,32.609,0,0,0,4.266,5.215c1.015,1.015,4.4,2.917,4.107,4.385,0,.013-.022.037-.028.05-6.1.263-12.206.407-18.315.476a.511.511,0,0,0-.149-.362c-2.934-2.785-5.842-5.6-8.811-8.345-.408-.379-.942.282-.548.664,1.451,1.408,2.93,2.79,4.4,4.18.949.9,3.35,2.442,3.559,3.882-8.6.078-17.2.024-25.773-.019-.3,0-.256.457.039.466,8.479.257,16.979.476,25.477.533-.77,1.1-2.941,2.664-3.62,3.35-1.544,1.559-3.068,3.139-4.592,4.717-.269.278.185.632.453.377,2.932-2.781,5.821-5.6,8.7-8.435,6,.032,12-.026,17.986-.205-.6.547-1.237,1.084-1.4,1.263q-1.262,1.349-2.4,2.807a41.031,41.031,0,0,0-4.048,6.269c-.133.252.272.519.433.27a58.326,58.326,0,0,1,8.623-10.645c7.578-.248,15.14-.714,22.67-1.475-.19.127-.375.25-.531.375a57.034,57.034,0,0,0-9.737,10.13c-.282.373.271.836.563.464a59.76,59.76,0,0,1,11.629-11.188,226.757,226.757,0,0,0,34.316-6.224C607.881,215.15,607.34,213.65,606.357,213.917Z" transform="translate(-488.812 -205.763)" fill="#78c8cf" style="mix-blend-mode: multiply;isolation: isolate"/>
      </g>
      <g id="Group_122" data-name="Group 122" transform="translate(36.824 274.043)">
        <path id="Path_97" data-name="Path 97" d="M587.741,237.518c-3.059-.925-6.073-1.834-9.089-2.8,3.081-6.2,1.487-14.148-4.49-18.162a15.5,15.5,0,0,0-6.177-2.08c-1.587-.118-3.137-.291-4.726-.5-3.363-1.5-5.027-3.8-4.956-6.9-1.77-2.548-2.253-4.266-5.361-5.62-2.341-1.018-4.749-.785-7.17-1.265a16.8,16.8,0,0,1-11.628-7.407c-3.089-4.219-5.243-9.343-9.716-12.387-6.871-4.7-16.5-2.811-22.019,3.107-6.094,6.517-6.636,16.878-2.94,24.742,2.007,4.236,4.559,5.788,8.171,8.324,8.612,5.995,6.1,5.07,8.961,12.124a12.343,12.343,0,0,0,2.354,4.184c2.055,2.212,4.654,2.966,7.575,3.251,2.729.291,5.463-.181,8.2-.186,5.517-.009,7.5,2.311,12.068,4.712,9.078,4.766,23.5.768,32.727-3.3,2.6.755,5.189,1.494,7.739,2.229C588.589,239.954,589.005,237.93,587.741,237.518Z" transform="translate(-497.151 -177.756)" fill="#47cd4e"/>
        <path id="Path_98" data-name="Path 98" d="M580.863,233.073l-.293-.364c-.5-.614-1.375.116-.948.755-1.067-1.6-3.359-2.479-5.294-3.633-3.066-1.83-5.922-3.956-8.983-5.792a119.874,119.874,0,0,1-3.969-12.135c-.16-.6-1.117-.479-.964.131q.884,3.551,2.052,7.013a19.777,19.777,0,0,1,1.225,3.372,4.831,4.831,0,0,1,.045.683c-6.564-3.68-13.383-6.832-19.866-10.676-.088-.052-.174-.106-.259-.159.218-.834-.293-1.623-.658-2.5q-1.95-4.681-4.038-9.309a.516.516,0,0,0-.948.407c.817,1.949,1.669,3.883,2.52,5.819a24.912,24.912,0,0,1,1.529,3.484l.511,1.16c-.034.076-.077.138-.112.211-6.677-4.021-13.155-8.339-19.478-12.877-1.669-3.408-3.406-6.782-5.12-10.169-.28-.55-1.171-.173-.888.38l2.831,5.551a16.589,16.589,0,0,1,1.582,3.076q-8.377-6.088-16.425-12.626c-.233-.188-.5.179-.274.369q8.105,6.939,16.645,13.316a1.234,1.234,0,0,1-.39.468c-1.362,1.013-3.811,1.468-5.407,2.085q-2.946,1.139-5.883,2.309c-.339.134-.118.638.222.519,4.2-1.475,8.379-3.022,12.562-4.551q9.415,6.958,19.387,13.126a3.7,3.7,0,0,1-1.406,1.018c-3.421,2.236-7.6,3.73-11.264,5.564-.345.172-.117.716.235.552,2.9-1.335,5.777-2.7,8.662-4.053,1.341-.629,3.781-1.212,4.98-2.352,1.142.694,2.279,1.4,3.432,2.072,5.43,3.186,11.169,5.812,16.653,8.891a14.154,14.154,0,0,1-1.408.414,61.466,61.466,0,0,0-12.933,5.265c-.205.114-.073.446.146.343a71.7,71.7,0,0,1,15.327-5.366c1.436.832,2.857,1.686,4.243,2.608,3.247,2.162,7.731,6.107,11.779,6.752a.645.645,0,0,0,.666-.394l.067-.136A.618.618,0,0,0,580.863,233.073Z" transform="translate(-490.743 -171.64)" fill="#47cd4e" style="mix-blend-mode: multiply;isolation: isolate"/>
      </g>
      <g id="Group_123" data-name="Group 123" transform="translate(288.044 296.139)">
        <path id="Path_99" data-name="Path 99" d="M632.612,253.248c3.178-1.028,6.306-2.035,9.438-3.1-3.341-6.411-1.833-14.745,4.327-19.055a16.168,16.168,0,0,1,6.411-2.294c1.654-.157,3.27-.366,4.924-.621,3.482-1.63,5.176-4.066,5.038-7.3,1.8-2.7,2.27-4.5,5.487-5.974,2.425-1.112,4.945-.914,7.463-1.464a17.551,17.551,0,0,0,12-7.966c3.141-4.467,5.29-9.861,9.9-13.129,7.082-5.044,17.179-3.264,23.058,2.807,6.495,6.685,7.267,17.494,3.561,25.781-2.011,4.463-4.644,6.135-8.365,8.856-8.877,6.431-6.267,5.415-9.119,12.84a12.874,12.874,0,0,1-2.374,4.415c-2.1,2.35-4.8,3.191-7.845,3.546-2.844.358-5.709-.078-8.571-.03-5.762.1-7.787,2.561-12.508,5.157-9.386,5.159-24.529,1.272-34.245-2.79-2.7.839-5.387,1.662-8.037,2.481C631.774,255.809,631.3,253.7,632.612,253.248Z" transform="translate(-631.838 -189.398)" fill="#66c7c2"/>
        <path id="Path_100" data-name="Path 100" d="M632.6,248.635l.3-.384c.505-.651,1.438.093,1,.77,1.082-1.69,3.46-2.656,5.458-3.9,3.165-1.972,6.1-4.249,9.264-6.228a125.993,125.993,0,0,0,3.9-12.751c.155-.625,1.156-.524,1.011.117q-.853,3.724-2.005,7.364a20.869,20.869,0,0,0-1.212,3.548,4.992,4.992,0,0,0-.032.713c6.78-3.973,13.84-7.4,20.534-11.546.089-.056.177-.116.269-.17-.246-.865.272-1.7.636-2.624q1.944-4.927,4.031-9.8a.54.54,0,0,1,1,.407c-.815,2.052-1.667,4.089-2.516,6.127a26.268,26.268,0,0,0-1.53,3.669l-.509,1.222c.035.08.082.142.121.218,6.892-4.333,13.573-8.972,20.085-13.836,1.677-3.592,3.423-7.151,5.146-10.721.282-.582,1.22-.205.934.379q-1.424,2.926-2.846,5.853a17.3,17.3,0,0,0-1.591,3.244q8.628-6.522,16.9-13.512c.239-.2.524.177.295.38q-8.329,7.409-17.119,14.237a1.271,1.271,0,0,0,.416.481c1.442,1.03,4.008,1.457,5.687,2.068q3.1,1.133,6.19,2.294c.358.136.136.666-.222.546-4.417-1.457-8.809-2.988-13.209-4.5q-9.695,7.451-19.986,14.094a3.883,3.883,0,0,0,1.489,1.033c3.617,2.268,8.017,3.745,11.876,5.586.362.173.138.746-.235.582-3.051-1.335-6.086-2.7-9.128-4.061-1.412-.63-3.971-1.192-5.247-2.358-1.179.748-2.352,1.5-3.542,2.235-5.607,3.434-11.549,6.291-17.214,9.615a14.892,14.892,0,0,0,1.479.4,64.159,64.159,0,0,1,13.61,5.243c.218.114.086.463-.146.358a74.942,74.942,0,0,0-16.112-5.3c-1.483.9-2.951,1.819-4.379,2.807-3.348,2.322-7.953,6.53-12.167,7.286a.677.677,0,0,1-.7-.4l-.073-.14A.649.649,0,0,1,632.6,248.635Z" transform="translate(-631.299 -183.051)" fill="#66c7c2" style="mix-blend-mode: multiply;isolation: isolate"/>
      </g>
      <g id="Group_124" data-name="Group 124" transform="translate(276.856 244.592)">
        <path id="Path_101" data-name="Path 101" d="M626.066,276.894c3.581-3.411,7.232-6.855,10.895-10.337a1.209,1.209,0,0,1-.144-.257c-2.115-6.817-8.776-19.943-2.8-26.687,3.745-4.24,8.789-2.438,10.154-9.945.711-3.9-1.324-5.581,1.925-9.136,2.932-3.229,7.291-4.184,11.038-6.049,4.559-2.287,6.5-5.646,6.008-10.837-.259-2.518-1.52-4.327-1.074-6.942a13.236,13.236,0,0,1,6.053-8.431,22.736,22.736,0,0,1,5.034-2.19c6.349-2.272,8.9-3.732,12.049-10.177,3.7-7.617,9.559-14.205,18.814-13.825,9.427.367,16.034,7.8,16.675,16.934.367,5.254-1.153,10.281-3.119,15.071-2.151,5.3-1.119,8.772-.14,14.44.293,1.71,1.1,2.867.718,4.8-.588,2.964-2.947,4.827-5.5,6.062-1.723.828-3.628,1.005-5.426,1.638-10.5,3.7-9.384,8.218-10.779,16.854-.629,3.829-1.74,6.153-5.254,8.239-7.1,4.2-15.623,1.306-20.987,8.386-3.893,5.144-5.28,10.07-11.747,12.422-5.985,2.182-12.342.976-18.389-.31a.375.375,0,0,1-.276-.347l-.386.36a1.072,1.072,0,0,1-.563.528c-3.966,3.693-7.929,7.291-11.833,10.8C626.333,278.573,625.406,277.515,626.066,276.894Z" transform="translate(-625.84 -162.066)" fill="#75d97a"/>
        <path id="Path_102" data-name="Path 102" d="M626.841,269.557a255.286,255.286,0,0,0,19.67-16.811c-.8-3.686-1.615-7.4-2.182-11.126a.427.427,0,0,1,.837-.162c.532,2.151.914,4.337,1.343,6.51a31.345,31.345,0,0,0,.642,3.26c.093.291.162.509.228.7a240.461,240.461,0,0,0,17.609-18.706,1.816,1.816,0,0,1-.349-.162c-1.358-.836-1.817-4.156-2.307-5.575-.987-2.854-2.057-5.691-2.889-8.593a.409.409,0,0,1,.765-.257c.862,2.123,1.563,4.307,2.309,6.474.448,1.3.9,2.6,1.345,3.9.543,1.582.446,2.3,2.089,2.878.037.015.08.019.12.032q6.774-8.142,12.788-16.863l-.009-.021a124.726,124.726,0,0,0-6.467-17.011.423.423,0,0,1,.757-.375c2.65,4.611,3.691,9.733,5.853,14.493a4.592,4.592,0,0,0,.853,1.475q5.5-8.133,10.328-16.761l-.006-.011a45.362,45.362,0,0,0-6.6-14.683c-.237-.351.241-.8.507-.446a38.1,38.1,0,0,1,6.122,11.917,4.9,4.9,0,0,0,.8,1.714c3.121-5.706,6.036-11.557,8.692-17.591-1.326-2.5-2.686-4.989-3.928-7.532a.342.342,0,0,1,.612-.3c.727,1.293,1.41,2.606,2.1,3.921a12.818,12.818,0,0,0,1.641,2.99q1.631-3.755,3.143-7.591a.245.245,0,0,1,.463.162q-1.421,3.953-3.009,7.866a1.534,1.534,0,0,0,.4.14c1.071.175,2.813-.5,3.893-.692,1.623-.285,3.244-.571,4.87-.836a.283.283,0,0,1,.108.556c-3.223.66-6.459,1.261-9.692,1.863q-3.654,8.883-8.136,17.486c.7-.076,1.6-.513,2.88-.865a61.681,61.681,0,0,1,8.651-1.666c.334-.043.438.466.1.519a64.054,64.054,0,0,0-12.2,3.087q-4.619,8.763-10.055,17.111l.517.006a37.622,37.622,0,0,0,4.275-.6c2.417-.27,4.842-.4,7.274-.455.353-.007.394.608.036.629a98.35,98.35,0,0,0-12.868,1.589q-5.8,8.819-12.446,17.046c1.8-.041,3.783-.509,5.338-.662,2.649-.261,5.3-.513,7.946-.737.315-.026.421.451.1.494-3.346.448-6.7.847-10.052,1.248-.961.116-2.684.6-4.251.795a209.671,209.671,0,0,1-17.861,19.253c3.971-.289,7.849-1.149,11.872-1.216.384-.007.325.569-.045.588a79.075,79.075,0,0,0-12.993,1.738A192.274,192.274,0,0,1,627.7,270.531C627.026,271,626.171,270.074,626.841,269.557Z" transform="translate(-625.184 -155.991)" fill="#75d97a" style="mix-blend-mode: multiply;isolation: isolate"/>
      </g>
      <g id="Group_126" data-name="Group 126" transform="translate(74.387 242.595)">
        <path id="Path_103" data-name="Path 103" d="M691.544,218.477a2.056,2.056,0,0,0-.722-.614,1.65,1.65,0,0,0-2.121-1.225c-8.533,3.02-15.949,7.744-23.345,12.887-6.345,4.4-20.019,16.321-28.18,14.746a1.823,1.823,0,0,0-1.115.175c-.022-.067-.045-.11-.065-.175a.953.953,0,0,0-1.86.218c-3.654.065-1.794,1.183.5,2.1,5.23,20,23.476,30.718,43.954,22.711C697.124,262.058,702.506,233.966,691.544,218.477ZM658.093,238.67c5.95-3.807,11.574-7.985,17.5-11.661,15.644,15.731-12.208,34.831-23.649,15.358C654.023,241.209,656.081,239.983,658.093,238.67Z" transform="translate(-417.978 -112.673)" fill="#002e3c"/>
        <path id="Path_104" data-name="Path 104" d="M666.376,222.152c15.644,15.731-12.208,34.831-23.649,15.358,2.078-1.158,4.135-2.384,6.148-3.7C654.825,230.006,660.448,225.828,666.376,222.152Z" transform="translate(-408.76 -107.816)" fill="#527681"/>
        <g id="Group_125" data-name="Group 125" transform="translate(34.865 127.941)">
          <path id="Path_105" data-name="Path 105" d="M568.7,233.2c-.285.022-.569.022-.854.045-.918.065-1.225.634-1.158,1.2-.022.065-.067.088-.088.153-2.977,9.035-12.887,9.779-17.964,3.173a1.444,1.444,0,0,0,.416-2.123C554.545,233.555,563.931,228.808,568.7,233.2Z" transform="translate(-525.034 -227.758)" fill="#527681"/>
          <path id="Path_106" data-name="Path 106" d="M601.986,235.461c-.175-.022-.393-.043-.591-.065a3.233,3.233,0,0,0,.065-.459c.2-2.406-3.544-2.406-3.742,0,0,.022-.021.022-.021.043a106.623,106.623,0,0,0-14.483-.284c-4.135-8.642-18.794-2.539-24.526,1.334a.891.891,0,0,0-.373.547c-6.431-2.143-14-4.878-20.762-5.316-.088-.436-.175-.875-.241-1.334-.11-.767-1.291-.548-1.313.173-1.225,40.585,58.415,46.951,65.023,8.27h.569C603.212,238.371,603.693,235.724,601.986,235.461ZM560,237.343c5.493-2.1,14.879-6.847,19.648-2.451-.285.022-.569.022-.854.045-.918.065-1.226.634-1.158,1.2-.023.065-.067.088-.088.153-2.977,9.035-12.887,9.779-17.964,3.173A1.444,1.444,0,0,0,560,237.343Z" transform="translate(-535.982 -229.446)" fill="#002e3c"/>
        </g>
        <path id="Path_107" data-name="Path 107" d="M782.953,255.946a1.2,1.2,0,0,0-.263-.634,1.634,1.634,0,0,0-.218-2.165c-10.852-10.523-25.4-18.247-40.192-17.525,2.013-6.06,4.376-21.353,4.158-36.1a4.415,4.415,0,0,0,.481.218c2.69.875,5.556.679,8.313.481,2.516-.2,5.93.132,7.789-1.968,1.662-1.9,1.641-5.077,1.4-7.44a17.79,17.79,0,0,0-.634-3.411,20.412,20.412,0,0,0-2.953-7.789c-.974-1.776-1.947-2.429-2.1-2.406v-.022a.2.2,0,0,1-.11.022,19.729,19.729,0,0,0-13.521,7.5c-2.165-11.641-7.155-20.172-17.087-18.837-5.777.744-15.6,8.531-10.436,14.832,4.266,5.208,9.779,1.466,13.3-2.559,6.8,18.99,7.832,38.593,4.266,58.525a37,37,0,0,0-7.92,2.844c-15.556,7.614-19.713,21.4-18.137,35.946a1.746,1.746,0,0,0-1.664-.657c-15.927,2.3-38.921,0-48.024-15.446-5.732-9.757-5.4-21.834-8.925-32.358-6.456-19.21-24.505-23.149-42.838-23.257-21.814-.11-46.295,2.69-62.419,19.077-16.891,17.152-16.606,46.382-14.571,68.72a1.321,1.321,0,0,0,2.013,1.007.547.547,0,0,1,.175.043c59.4,2.757,119.5.088,178.857-2.669a1.3,1.3,0,0,0,.589-.153c.461,1.358.942,2.714,1.445,4.048a.918.918,0,0,0,1.707.088.555.555,0,0,0,.567.373c14.44-.92,31.024-8.643,43.517-15.754C766.084,274.8,784.419,264.938,782.953,255.946Z" transform="translate(-506.563 -156.629)" fill="#78c8cf"/>
        <path id="Path_108" data-name="Path 108" d="M621.283,176.956c-9.539-3.107-21.178-3.26-31.045-3.676-10.546-.438-23.039-1.97-33.409.065-13.128,2.581-6.629,20.588-1.662,28.575-.614.612-.286,2.033.744,1.925a249.23,249.23,0,0,1,35.224-1.86c7.526.241,14.812,1.334,22.271,1.99,2.626.241,5.383.744,7.812-.765,4.245-2.671,7.854-13.107,7.744-17.941C628.854,179.886,625.812,178.443,621.283,176.956Z" transform="translate(-489.77 -150.936)" fill="#002e3c"/>
        <path id="Path_109" data-name="Path 109" d="M529.239,235.549c19.1-7.034,38.17-15.132,57.781-20.452-2.24-17.526-5.245-34.879-6.386-52.575a1.694,1.694,0,0,0-1.664-1.664c-20.127,2.035-40.212,5.208-60.254,7.942a1.968,1.968,0,0,0-1.356,2.406A284.4,284.4,0,0,1,529.239,235.549Z" transform="translate(-517.289 -160.853)" fill="#f7c000"/>
        <path id="Path_110" data-name="Path 110" d="M588,204.267c-15.166-7.8-41.827-8.875-53.608,5.672-.127.157.045.457.239.31,15.015-11.383,37.017-12.9,53.662-3.611,18.05,10.074,22.6,30.933,21.163,50.122-.1,1.281,1.893,1.272,1.992,0C613.071,236.149,607.626,214.367,588,204.267Z" transform="translate(-502.528 -128.166)" fill="#e10613" opacity="0.39" style="mix-blend-mode: multiply;isolation: isolate"/>
        <path id="Path_111" data-name="Path 111" d="M696.135,213.355c-2.007,14.079-18.508,20.642-29.886,26.611-12.087,6.342-24.166,10.063-37.4,13.049a.606.606,0,0,0,.16,1.184c14.97-.636,29.536-7.86,42.424-14.978,11.182-6.172,24.343-11.432,26.417-25.393C698.022,212.7,696.3,212.225,696.135,213.355Z" transform="translate(-421.135 -115.986)" fill="#e10613" opacity="0.39" style="mix-blend-mode: multiply;isolation: isolate"/>
        <path id="Path_112" data-name="Path 112" d="M626.991,224.931a.846.846,0,0,0-1.692,0c-.159,4.7.864,10.15,3.771,13.95.28.366.987.183.815-.343C628.362,233.888,627.039,229.911,626.991,224.931Z" transform="translate(-423.852 -106.119)" fill="#e10613" opacity="0.39" style="mix-blend-mode: multiply;isolation: isolate"/>
        <path id="Path_113" data-name="Path 113" d="M631.8,168.875a.4.4,0,0,0,.1.774,6.093,6.093,0,0,1,4.814,2.307c1.069,1.537.808,2.982.692,4.708a.932.932,0,0,0,1.724.466C641.28,172.7,636.281,167.516,631.8,168.875Z" transform="translate(-418.459 -154.103)" fill="#e10613" opacity="0.39" style="mix-blend-mode: multiply;isolation: isolate"/>
        <path id="Path_114" data-name="Path 114" d="M634.082,167.209a.474.474,0,0,0-.125.927c1.716.643,3.245,1.274,4.268,2.9a6.636,6.636,0,0,1,.483,5.431c-.25,1,1.27,1.748,1.737.731C642.38,172.993,639.165,166.711,634.082,167.209Z" transform="translate(-416.637 -155.378)" fill="#e10613" opacity="0.39" style="mix-blend-mode: multiply;isolation: isolate"/>
        <path id="Path_115" data-name="Path 115" d="M651.876,172.995c-.216-.414-.828-.121-.729.308,1.343,5.872,4.284,11.479,3.322,17.65-.185,1.183,1.629,1.686,1.808.5C657.252,184.971,654.84,178.669,651.876,172.995Z" transform="translate(-401.484 -150.52)" fill="#e10613" opacity="0.39" style="mix-blend-mode: multiply;isolation: isolate"/>
        <path id="Path_116" data-name="Path 116" d="M645.5,176.382c-.108-.33-.69-.3-.643.086.574,4.872,1.147,9.748,1.433,14.649.076,1.315,2.154,1.306,2.046,0A63.348,63.348,0,0,0,645.5,176.382Z" transform="translate(-406.916 -147.614)" fill="#e10613" opacity="0.39" style="mix-blend-mode: multiply;isolation: isolate"/>
        <path id="Path_117" data-name="Path 117" d="M646.49,202.818a11.959,11.959,0,0,0-6.543,1.19c-.362.2-.222.869.222.819a54.294,54.294,0,0,1,6.321-.526A.742.742,0,0,0,646.49,202.818Z" transform="translate(-411.344 -124.589)" fill="#e10613" opacity="0.39" style="mix-blend-mode: multiply;isolation: isolate"/>
        <path id="Path_118" data-name="Path 118" d="M690.96,220.033c-12.915-10.094-30.261-18.535-46.56-11.34-17.809,7.86-18.445,27.823-12.169,43.877a.3.3,0,0,0,.571-.157c-3.654-16.285-4.325-34.432,14-41.727,15.534-6.185,30.772.757,43.12,10.386C690.658,221.646,691.7,220.616,690.96,220.033Z" transform="translate(-420.966 -121.786)" fill="#e10613" opacity="0.39" style="mix-blend-mode: multiply;isolation: isolate"/>
        <path id="Path_119" data-name="Path 119" d="M583.929,205.489c-15.748-6.01-38.591-1.347-51.047,9.837-.3.269.1.811.437.567,11.635-8.587,28.726-10.969,42.808-8.832,18.158,2.755,29.176,19.219,27.264,37.412-.032.3.485.371.528.071C606.123,229.433,598.869,211.191,583.929,205.489Z" transform="translate(-503.89 -124.516)" fill="#e10613" opacity="0.39" style="mix-blend-mode: multiply;isolation: isolate"/>
        <path id="Path_120" data-name="Path 120" d="M659.945,258c-20.857,1.908-54.317,1.807-61.1-23.129-4.107-15.108.356-33.576-15.065-43.209-.239-.149-.444.216-.218.373,19.436,13.575,4.357,42.807,22.129,57.719,13.713,11.508,37.6,10.96,54.251,9.453C660.713,259.139,660.719,257.932,659.945,258Z" transform="translate(-460.032 -134.224)" fill="#e10613" opacity="0.39" style="mix-blend-mode: multiply;isolation: isolate"/>
        <path id="Path_121" data-name="Path 121" d="M576.19,168.847c-18.516,2.938-37.151,5.377-55.619,8.593-.5.088-.394.951.123.9,18.7-1.806,37.383-4.913,55.91-7.989C577.6,170.188,577.171,168.692,576.19,168.847Z" transform="translate(-514.732 -153.946)" fill="#f7c000" opacity="0.39" style="mix-blend-mode: multiply;isolation: isolate"/>
        <path id="Path_122" data-name="Path 122" d="M558.746,190.226c-.213-.625-.435-1.248-.647-1.871a1.268,1.268,0,0,0,0-.278c-.407-2.037-.963-4.042-1.483-6.051-.407-1.572-.5-3.415-1.74-4.549a.547.547,0,0,0-.614-.1,1.446,1.446,0,0,0-1.175-.112c-3.624,1.087-7.259,2.1-10.936,2.99a64.866,64.866,0,0,0-10.469,2.261,1.315,1.315,0,0,0-1.72,1.477c.778,3.887,1.158,8.4,2.7,12.057a.782.782,0,0,0,1.171.379.9.9,0,0,0,.345-.015,120.658,120.658,0,0,1,23.586-4.9A1.034,1.034,0,0,0,558.746,190.226Z" transform="translate(-506.353 -146.717)" fill="#f7c000" opacity="0.39" style="mix-blend-mode: multiply;isolation: isolate"/>
      </g>
    </g>
  </g>
</svg>
